<?xml version="1.0" encoding="UTF-8"?>
<!-- Generated by Pixelmator Pro 3.4.3 -->
<svg width="512" height="512" viewBox="0 0 512 512" xmlns="http://www.w3.org/2000/svg">
    <g id="c">
        <path id="Path" fill="#8c6239" stroke="none" d="M 400 376 L 400 434.967987 C 400 448.799988 403.216003 462.440002 409.40799 474.808014 L 416 488 L 352 488 L 358.59201 474.808014 C 364.776001 462.440002 368 448.799988 368 434.967987 L 368 376 Z"/>
        <path id="path1" fill="#7f5634" stroke="none" d="M 368 383.519989 L 400 383.519989 L 400 399.519989 L 368 399.519989 Z"/>
        <path id="path2" fill="#8c6239" stroke="none" d="M 144 376 L 144 434.967987 C 144 448.799988 147.216003 462.440002 153.408005 474.808014 L 160 488 L 96 488 L 102.592003 474.808014 C 108.776001 462.440002 112 448.799988 112 434.967987 L 112 376 Z"/>
        <path id="path3" fill="#7f5634" stroke="none" d="M 112 384 L 144 384 L 144 400 L 112 400 Z"/>
        <path id="path4" fill="#008e47" stroke="none" d="M 232 312 C 232 301.231995 224.863998 292.231995 215.095993 289.191986 C 215.671997 286.216003 216 283.144012 216 280 C 216 263.088013 207.231995 248.247986 194.016006 239.703979 C 197.695999 235.488007 200 230.039978 200 224 C 200 210.744019 189.255997 200 176 200 C 175.080002 200 174.207993 200.167999 173.311996 200.272003 C 166.792007 181.496002 148.992004 168 128 168 C 107.008003 168 89.208 181.496002 82.688004 200.272003 C 81.792 200.167999 80.919998 200 80 200 C 66.744003 200 56 210.744019 56 224 C 56 230.031982 58.304001 235.47998 61.984001 239.703979 C 48.768002 248.255981 40 263.096008 40 280 C 40 283.144012 40.32 286.216003 40.903999 289.191986 C 31.136 292.231995 24 301.231995 24 312 C 24 319.903992 27.872 326.855988 33.768002 331.231995 C 32.647999 335.303986 32 339.567993 32 344 C 32 370.511993 53.487999 392 80 392 C 88.751999 392 96.935997 389.615997 104 385.528015 C 111.064003 389.623993 119.248001 392 128 392 C 136.751999 392 144.936005 389.615997 152 385.528015 C 159.063995 389.623993 167.248001 392 176 392 C 202.511993 392 224 370.511993 224 344 C 224 339.567993 223.352005 335.303986 222.231995 331.231995 C 228.128006 326.855988 232 319.903992 232 312 Z"/>
        <path id="path5" fill="#008e47" stroke="none" d="M 488 312 C 488 301.231995 480.864014 292.231995 471.096008 289.191986 C 471.671997 286.216003 472 283.144012 472 280 C 472 263.088013 463.231995 248.247986 450.015991 239.703979 C 453.696014 235.488007 456 230.039978 456 224 C 456 210.744019 445.256012 200 432 200 C 431.079987 200 430.208008 200.167999 429.312012 200.272003 C 422.791992 181.496002 404.992004 168 384 168 C 363.007996 168 345.208008 181.496002 338.687988 200.272003 C 337.791992 200.167999 336.920013 200 336 200 C 322.743988 200 312 210.744019 312 224 C 312 230.031982 314.303986 235.47998 317.984009 239.703979 C 304.768005 248.255981 296 263.096008 296 280 C 296 283.144012 296.320007 286.216003 296.903992 289.191986 C 287.135986 292.231995 280 301.231995 280 312 C 280 319.903992 283.872009 326.855988 289.768005 331.231995 C 288.64801 335.303986 288 339.567993 288 344 C 288 370.511993 309.488007 392 336 392 C 344.752014 392 352.936005 389.615997 360 385.528015 C 367.063995 389.623993 375.247986 392 384 392 C 392.752014 392 400.936005 389.615997 408 385.528015 C 415.063995 389.623993 423.247986 392 432 392 C 458.511993 392 480 370.511993 480 344 C 480 339.567993 479.35199 335.303986 478.231995 331.231995 C 484.127991 326.855988 488 319.903992 488 312 Z"/>
        <path id="path6" fill="#8c6239" stroke="none" d="M 272 384 L 272 434.967987 C 272 448.799988 275.216003 462.440002 281.40799 474.808014 L 288 488 L 224 488 L 230.591995 474.808014 C 236.776001 462.440002 240 448.799988 240 426.967987 L 240 384 Z"/>
        <path id="path7" fill="#754c24" stroke="none" d="M 24 496 C 19.576 496 16 492.424011 16 488 C 16 483.575989 19.576 480 24 480 L 487.992004 480 C 492.415985 480 495.992004 483.567993 495.992004 487.992004 C 495.992004 492.415985 492.415985 495.992004 487.992004 495.992004 L 24 495.992004 Z"/>
        <path id="path8" fill="#7f5634" stroke="none" d="M 240 384 L 272 384 L 272 400 L 240 400 Z"/>
        <path id="path9" fill="#009d54" stroke="none" d="M 360 314 C 360 303.231995 352.864014 294.231995 343.096008 291.191986 C 343.671997 288.216003 344 285.144012 344 282 C 344 265.088013 335.231995 250.247986 322.015991 241.703979 C 325.696014 237.488007 328 232.039978 328 226 C 328 212.744019 317.256012 202 304 202 C 303.079987 202 302.208008 202.167999 301.312012 202.272003 C 294.791992 183.496002 276.992004 170 256 170 C 235.007996 170 217.207993 183.496002 210.688004 202.272003 C 209.792007 202.167999 208.919998 202 208 202 C 194.744003 202 184 212.744019 184 226 C 184 232.031982 186.304001 237.47998 189.983994 241.703979 C 176.768005 250.255981 168 265.096008 168 282 C 168 285.144012 168.320007 288.216003 168.904007 291.191986 C 159.136002 294.231995 152 303.231995 152 314 C 152 321.903992 155.871994 328.855988 161.768005 333.231995 C 160.647995 337.303986 160 341.567993 160 346 C 160 372.511993 181.488007 394 208 394 C 216.751999 394 224.936005 391.615997 232 387.528015 C 239.063995 391.623993 247.248001 394 256 394 C 264.752014 394 272.936005 391.615997 280 387.528015 C 287.063995 391.623993 295.247986 394 304 394 C 330.511993 394 352 372.511993 352 346 C 352 341.567993 351.35199 337.303986 350.231995 333.231995 C 356.127991 328.855988 360 321.903992 360 314 Z"/>
    </g>
    <g id="d"/>
</svg>
