<?xml version="1.0" encoding="UTF-8"?>
<!-- Generated by Pixelmator Pro 3.4.3 -->
<svg width="512" height="512" viewBox="0 0 512 512" xmlns="http://www.w3.org/2000/svg">
    <g id="c">
        <path id="Path" fill="#8c6239" stroke="none" d="M 400 376 L 400 434.967987 C 400 448.799988 403.216003 462.440002 409.40799 474.808014 L 416 488 L 352 488 L 358.59201 474.808014 C 364.776001 462.440002 368 448.799988 368 434.967987 L 368 376 Z"/>
        <path id="path1" fill="#7f5634" stroke="none" d="M 368 383.519989 L 400 383.519989 L 400 399.519989 L 368 399.519989 Z"/>
        <path id="path2" fill="#8c6239" stroke="none" d="M 144 376 L 144 434.967987 C 144 448.799988 147.216003 462.440002 153.408005 474.808014 L 160 488 L 96 488 L 102.592003 474.808014 C 108.776001 462.440002 112 448.799988 112 434.967987 L 112 376 Z"/>
        <path id="path3" fill="#7f5634" stroke="none" d="M 112 384 L 144 384 L 144 400 L 112 400 Z"/>
        <path id="path4" fill="#008e47" stroke="none" d="M 232 312 C 232 301.231995 224.863998 292.231995 215.095993 289.191986 C 215.671997 286.216003 216 283.144012 216 280 C 216 263.088013 207.231995 248.247986 194.016006 239.703979 C 197.695999 235.488007 200 230.039978 200 224 C 200 210.744019 189.255997 200 176 200 C 175.080002 200 174.207993 200.167999 173.311996 200.272003 C 166.792007 181.496002 148.992004 168 128 168 C 107.008003 168 89.208 181.496002 82.688004 200.272003 C 81.792 200.167999 80.919998 200 80 200 C 66.744003 200 56 210.744019 56 224 C 56 230.031982 58.304001 235.47998 61.984001 239.703979 C 48.768002 248.255981 40 263.096008 40 280 C 40 283.144012 40.32 286.216003 40.903999 289.191986 C 31.136 292.231995 24 301.231995 24 312 C 24 319.903992 27.872 326.855988 33.768002 331.231995 C 32.647999 335.303986 32 339.567993 32 344 C 32 370.511993 53.487999 392 80 392 C 88.751999 392 96.935997 389.615997 104 385.528015 C 111.064003 389.623993 119.248001 392 128 392 C 136.751999 392 144.936005 389.615997 152 385.528015 C 159.063995 389.623993 167.248001 392 176 392 C 202.511993 392 224 370.511993 224 344 C 224 339.567993 223.352005 335.303986 222.231995 331.231995 C 228.128006 326.855988 232 319.903992 232 312 Z"/>
        <path id="path5" fill="#008e47" stroke="none" d="M 488 312 C 488 301.231995 480.864014 292.231995 471.096008 289.191986 C 471.671997 286.216003 472 283.144012 472 280 C 472 263.088013 463.231995 248.247986 450.015991 239.703979 C 453.696014 235.488007 456 230.039978 456 224 C 456 210.744019 445.256012 200 432 200 C 431.079987 200 430.208008 200.167999 429.312012 200.272003 C 422.791992 181.496002 404.992004 168 384 168 C 363.007996 168 345.208008 181.496002 338.687988 200.272003 C 337.791992 200.167999 336.920013 200 336 200 C 322.743988 200 312 210.744019 312 224 C 312 230.031982 314.303986 235.47998 317.984009 239.703979 C 304.768005 248.255981 296 263.096008 296 280 C 296 283.144012 296.320007 286.216003 296.903992 289.191986 C 287.135986 292.231995 280 301.231995 280 312 C 280 319.903992 283.872009 326.855988 289.768005 331.231995 C 288.64801 335.303986 288 339.567993 288 344 C 288 370.511993 309.488007 392 336 392 C 344.752014 392 352.936005 389.615997 360 385.528015 C 367.063995 389.623993 375.247986 392 384 392 C 392.752014 392 400.936005 389.615997 408 385.528015 C 415.063995 389.623993 423.247986 392 432 392 C 458.511993 392 480 370.511993 480 344 C 480 339.567993 479.35199 335.303986 478.231995 331.231995 C 484.127991 326.855988 488 319.903992 488 312 Z"/>
        <path id="path6" fill="#8c6239" stroke="none" d="M 272 384 L 272 434.967987 C 272 448.799988 275.216003 462.440002 281.40799 474.808014 L 288 488 L 224 488 L 230.591995 474.808014 C 236.776001 462.440002 240 448.799988 240 426.967987 L 240 384 Z"/>
        <path id="path7" fill="#754c24" stroke="none" d="M 24 496 C 19.576 496 16 492.424011 16 488 C 16 483.575989 19.576 480 24 480 L 487.992004 480 C 492.415985 480 495.992004 483.567993 495.992004 487.992004 C 495.992004 492.415985 492.415985 495.992004 487.992004 495.992004 L 24 495.992004 Z"/>
        <path id="path8" fill="#7f5634" stroke="none" d="M 240 384 L 272 384 L 272 400 L 240 400 Z"/>
        <path id="path9" fill="#009d54" stroke="none" d="M 360 314 C 360 303.231995 352.864014 294.231995 343.096008 291.191986 C 343.671997 288.216003 344 285.144012 344 282 C 344 265.088013 335.231995 250.247986 322.015991 241.703979 C 325.696014 237.488007 328 232.039978 328 226 C 328 212.744019 317.256012 202 304 202 C 303.079987 202 302.208008 202.167999 301.312012 202.272003 C 294.791992 183.496002 276.992004 170 256 170 C 235.007996 170 217.207993 183.496002 210.688004 202.272003 C 209.792007 202.167999 208.919998 202 208 202 C 194.744003 202 184 212.744019 184 226 C 184 232.031982 186.304001 237.47998 189.983994 241.703979 C 176.768005 250.255981 168 265.096008 168 282 C 168 285.144012 168.320007 288.216003 168.904007 291.191986 C 159.136002 294.231995 152 303.231995 152 314 C 152 321.903992 155.871994 328.855988 161.768005 333.231995 C 160.647995 337.303986 160 341.567993 160 346 C 160 372.511993 181.488007 394 208 394 C 216.751999 394 224.936005 391.615997 232 387.528015 C 239.063995 391.623993 247.248001 394 256 394 C 264.752014 394 272.936005 391.615997 280 387.528015 C 287.063995 391.623993 295.247986 394 304 394 C 330.511993 394 352 372.511993 352 346 C 352 341.567993 351.35199 337.303986 350.231995 333.231995 C 356.127991 328.855988 360 321.903992 360 314 Z"/>
    </g>
    <g id="fire">
        <g id="g1">
            <path id="path10" fill="#d1303d" stroke="none" d="M 80 200 C 83.767998 187.287994 113.928001 142.671997 124.655998 130.216003 C 136.759995 116.152008 144 98.559998 144 80 C 176 88 176 120 200 128 C 240 88 200 56 240 32 L 256 24 C 256 28.687988 256.384003 33.35199 257.127991 37.944 C 259.600006 53.104004 267.399994 66.791992 277.712006 78.18399 C 287.503998 89 298 104 304 128 C 320 104 344 112 352 80 C 388.600006 101.695984 360 136 400 176 L 296 248 Z"/>
            <path id="path11" fill="#f3722c" stroke="none" d="M 103.599998 188.848022 C 113.407997 172.575989 129.184006 149.471985 136.776001 140.64801 C 145.776001 130.192017 152.343994 118.23999 156.151993 105.656006 C 158.584 108.471985 160.968002 111.824005 163.695999 115.783997 C 170.488007 125.615997 178.944 137.856018 194.927994 143.184021 L 204.311996 146.312012 L 211.304001 139.320007 C 235.992004 114.632019 235.992004 91.152008 235.992004 74.007996 C 235.992004 61.208008 235.992004 55.144012 243.231995 49.175995 C 247.128006 63.192017 254.839996 76.776001 265.839996 88.936005 C 273.480011 97.384003 282.976013 109.911987 288.463989 131.895996 L 297.23999 166.984009 L 317.303986 136.888 C 321.903992 129.984009 327.480011 127.023987 334.536011 123.279999 C 341.063995 119.807983 348.992004 115.600006 355.727997 107.76001 C 357.079987 111.824005 357.888 116.791992 358.855988 123.264008 C 360.864014 136.768005 363.463989 154.255981 376.455994 172.839996 L 292.623993 230.880005 L 103.584 188.864014 Z"/>
            <g id="Group">
                <path id="path12" fill="#e5581a" stroke="none" d="M 135.992004 176.416016 C 134.416 176.416016 132.824005 175.951996 131.432007 174.984009 C 127.807999 172.463989 126.912003 167.471985 129.432007 163.839996 C 133.391998 158.151978 138.936005 150.40802 142.856003 145.864014 C 146.455994 141.671997 149.735992 137.208008 152.608002 132.608002 C 153.968002 130.432007 156.287994 129.039978 158.848007 128.856018 C 161.503998 128.768005 163.904007 129.752014 165.544006 131.720001 C 172.184006 139.695984 179.087997 145.119995 187.264008 148.768005 C 191.304001 150.567993 193.112 155.296021 191.311996 159.328003 C 189.511993 163.359985 184.783997 165.200012 180.751999 163.376007 C 173.311996 160.056 166.584 155.52002 160.360001 149.583984 C 158.656006 151.872009 156.856003 154.104004 154.992004 156.287994 C 152.272003 159.447998 147.863998 165.367981 142.576004 172.976013 C 141.024002 175.208008 138.528 176.40802 136 176.40802 Z"/>
                <path id="path13" fill="#e5581a" stroke="none" d="M 283.007996 184 C 279.424011 184 276.167999 181.575989 275.256012 177.936005 L 265.191986 137.695984 C 262.567993 127.208008 258.799988 119.575989 254.936005 113.776001 C 251.912003 123.264008 247.464005 132.127991 241.528 140.600006 C 239 144.208008 234.007996 145.104004 230.384003 142.552002 C 226.768005 140.023987 225.888 135.031982 228.432007 131.40802 C 236.231995 120.287994 240.951996 108.335999 242.871994 94.880005 C 243.320007 91.752014 245.559998 89.18399 248.591995 88.320007 C 251.608002 87.440002 254.880005 88.440002 256.911987 90.856018 C 257.888 92.015991 258.880005 93.143982 259.903992 94.272003 C 266.936005 102.048004 275.64801 113.552002 280.712006 133.824005 L 290.776001 174.063995 C 291.855988 178.343994 289.247986 182.687988 284.951996 183.76001 C 284.303986 183.927979 283.64801 184 283.007996 184 Z"/>
                <path id="path14" fill="#e5581a" stroke="none" d="M 319.992004 169.687988 C 318.471985 169.687988 316.928009 169.247986 315.559998 168.343994 C 311.880005 165.888 310.888 160.927979 313.343994 157.247986 L 323.967987 141.312012 C 327.223999 136.424011 330.951996 134.264008 336.768005 131.143982 C 339.015991 129.936005 341.720001 129.864014 344.032013 130.984009 C 346.335999 132.104004 347.967987 134.247986 348.424011 136.776001 C 349.200012 141.080017 350.303986 145.304016 351.720001 149.343994 C 353.18399 153.511993 350.984009 158.080017 346.824005 159.536011 C 342.656006 161.039978 338.079987 158.799988 336.631989 154.640015 C 336.359985 153.872009 336.104004 153.112 335.847992 152.328003 L 326.664001 166.119995 C 325.127991 168.432007 322.584015 169.679993 320 169.679993 Z"/>
            </g>
            <path id="path15" fill="#d1303d" stroke="none" d="M 263.640015 254.264008 L 80 200"/>
            <path id="path16" fill="#8c6239" stroke="none" d="M 400 376 L 400 434.967987 C 400 448.799988 403.216003 462.440002 409.40799 474.808014 L 416 488 L 352 488 L 358.59201 474.808014 C 364.776001 462.440002 368 448.799988 368 434.967987 L 368 376 Z"/>
            <path id="path17" fill="#7f5634" stroke="none" d="M 368 383.519989 L 400 383.519989 L 400 399.519989 L 368 399.519989 Z"/>
            <path id="path18" fill="#8c6239" stroke="none" d="M 144 376 L 144 434.967987 C 144 448.799988 147.216003 462.440002 153.408005 474.808014 L 160 488 L 96 488 L 102.592003 474.808014 C 108.776001 462.440002 112 448.799988 112 434.967987 L 112 376 Z"/>
            <path id="path19" fill="#7f5634" stroke="none" d="M 112 384 L 144 384 L 144 400 L 112 400 Z"/>
            <path id="path20" fill="#008e47" stroke="none" d="M 232 312 C 232 301.231995 224.863998 292.231995 215.095993 289.191986 C 215.671997 286.216003 216 283.144012 216 280 C 216 263.088013 207.231995 248.247986 194.016006 239.703979 C 197.695999 235.488007 200 230.039978 200 224 C 200 210.744019 189.255997 200 176 200 C 175.080002 200 174.207993 200.167999 173.311996 200.272003 C 166.792007 181.496002 148.992004 168 128 168 C 107.008003 168 89.208 181.496002 82.688004 200.272003 C 81.792 200.167999 80.919998 200 80 200 C 66.744003 200 56 210.744019 56 224 C 56 230.031982 58.304001 235.47998 61.984001 239.703979 C 48.768002 248.255981 40 263.096008 40 280 C 40 283.144012 40.32 286.216003 40.903999 289.191986 C 31.136 292.231995 24 301.231995 24 312 C 24 319.903992 27.872 326.855988 33.768002 331.231995 C 32.647999 335.303986 32 339.567993 32 344 C 32 370.511993 53.487999 392 80 392 C 88.751999 392 96.935997 389.615997 104 385.528015 C 111.064003 389.623993 119.248001 392 128 392 C 136.751999 392 144.936005 389.615997 152 385.528015 C 159.063995 389.623993 167.248001 392 176 392 C 202.511993 392 224 370.511993 224 344 C 224 339.567993 223.352005 335.303986 222.231995 331.231995 C 228.128006 326.855988 232 319.903992 232 312 Z"/>
            <path id="path21" fill="#008e47" stroke="none" d="M 488 312 C 488 301.231995 480.864014 292.231995 471.096008 289.191986 C 471.671997 286.216003 472 283.144012 472 280 C 472 263.088013 463.231995 248.247986 450.015991 239.703979 C 453.696014 235.488007 456 230.039978 456 224 C 456 210.744019 445.256012 200 432 200 C 431.079987 200 430.208008 200.167999 429.312012 200.272003 C 422.791992 181.496002 404.992004 168 384 168 C 363.007996 168 345.208008 181.496002 338.687988 200.272003 C 337.791992 200.167999 336.920013 200 336 200 C 322.743988 200 312 210.744019 312 224 C 312 230.031982 314.303986 235.47998 317.984009 239.703979 C 304.768005 248.255981 296 263.096008 296 280 C 296 283.144012 296.320007 286.216003 296.903992 289.191986 C 287.135986 292.231995 280 301.231995 280 312 C 280 319.903992 283.872009 326.855988 289.768005 331.231995 C 288.64801 335.303986 288 339.567993 288 344 C 288 370.511993 309.488007 392 336 392 C 344.752014 392 352.936005 389.615997 360 385.528015 C 367.063995 389.623993 375.247986 392 384 392 C 392.752014 392 400.936005 389.615997 408 385.528015 C 415.063995 389.623993 423.247986 392 432 392 C 458.511993 392 480 370.511993 480 344 C 480 339.567993 479.35199 335.303986 478.231995 331.231995 C 484.127991 326.855988 488 319.903992 488 312 Z"/>
            <path id="path22" fill="#8c6239" stroke="none" d="M 272 384 L 272 434.967987 C 272 448.799988 275.216003 462.440002 281.40799 474.808014 L 288 488 L 224 488 L 230.591995 474.808014 C 236.776001 462.440002 240 448.799988 240 426.967987 L 240 384 Z"/>
            <path id="path23" fill="#f3722c" stroke="none" d="M 472 128 C 472 141.255981 448 160 448 160 C 448 160 440 141.255981 440 128 C 440 114.744019 464 96 464 96 C 464 96 472 114.744019 472 128 Z"/>
            <path id="path24" fill="#f3722c" stroke="none" d="M 88 112 C 88 125.255981 64 144 64 144 C 64 144 56 125.255981 56 112 C 56 98.744019 80 80 80 80 C 80 80 88 98.744019 88 112 Z"/>
            <path id="path25" fill="#754c24" stroke="none" d="M 24 496 C 19.576 496 16 492.424011 16 488 C 16 483.575989 19.576 480 24 480 L 487.992004 480 C 492.415985 480 495.992004 483.567993 495.992004 487.992004 C 495.992004 492.415985 492.415985 495.992004 487.992004 495.992004 L 24 495.992004 Z"/>
            <path id="path26" fill="#7f5634" stroke="none" d="M 240 384 L 272 384 L 272 400 L 240 400 Z"/>
            <path id="path27" fill="#009d54" stroke="none" d="M 360 312 C 360 301.231995 352.864014 292.231995 343.096008 289.191986 C 343.671997 286.216003 344 283.144012 344 280 C 344 263.088013 335.231995 248.247986 322.015991 239.703979 C 325.696014 235.488007 328 230.039978 328 224 C 328 210.744019 317.256012 200 304 200 C 303.079987 200 302.208008 200.167999 301.312012 200.272003 C 294.791992 181.496002 276.992004 168 256 168 C 235.007996 168 217.207993 181.496002 210.688004 200.272003 C 209.792007 200.167999 208.919998 200 208 200 C 194.744003 200 184 210.744019 184 224 C 184 230.031982 186.304001 235.47998 189.983994 239.703979 C 176.768005 248.255981 168 263.096008 168 280 C 168 283.144012 168.320007 286.216003 168.904007 289.191986 C 159.136002 292.231995 152 301.231995 152 312 C 152 319.903992 155.871994 326.855988 161.768005 331.231995 C 160.647995 335.303986 160 339.567993 160 344 C 160 370.511993 181.488007 392 208 392 C 216.751999 392 224.936005 389.615997 232 385.528015 C 239.063995 389.623993 247.248001 392 256 392 C 264.752014 392 272.936005 389.615997 280 385.528015 C 287.063995 389.623993 295.247986 392 304 392 C 330.511993 392 352 370.511993 352 344 C 352 339.567993 351.35199 335.303986 350.231995 331.231995 C 356.127991 326.855988 360 319.903992 360 312 Z"/>
            <path id="path28" fill="#d1303d" stroke="none" d="M 488.776001 248 C 488.776001 265.671997 474.447998 280 456.776001 280 C 439.104004 280 424.776001 265.671997 424.776001 248 C 424.776001 232 432.776001 232 440.776001 200 C 441.776001 195.992004 455 228.007996 456 224 C 464 192 480.776001 184 480.776001 184 C 480.776001 184 476.399994 194.880005 480.200012 208 C 484.384003 222.447998 488.776001 239.615997 488.776001 248 Z"/>
            <path id="path29" fill="#ed6a30" stroke="none" d="M 472 247.223999 C 472 255.848022 465.007996 262.832001 456.391998 262.832001 C 447.776001 262.832001 440.783997 255.839996 440.783997 247.223999 C 440.783997 239.416016 444.687988 239.416016 448.59201 223.807983 C 449.079987 221.848022 455.528015 237.471985 456.015991 235.52002 C 459.920013 219.911987 468.104004 216.007996 468.104004 216.007996 C 468.104004 216.007996 465.967987 221.312012 467.824005 227.720001 C 469.864014 234.768005 472.007996 243.143982 472.007996 247.231995 Z"/>
            <path id="path30" fill="#d1303d" stroke="none" d="M 288.776001 296 C 288.776001 313.671997 274.447998 328 256.776001 328 C 239.104004 328 224.776001 313.671997 224.776001 296 C 224.776001 280 232.776001 280 240.776001 248 C 241.776001 243.992004 255 276.007996 256 272 C 264 240 280.776001 232 280.776001 232 C 280.776001 232 276.399994 242.880005 280.200012 256 C 284.384003 270.447998 288.776001 287.615997 288.776001 296 Z"/>
            <path id="path31" fill="#ed6a30" stroke="none" d="M 272 295.223999 C 272 303.847992 265.007996 310.832001 256.391998 310.832001 C 247.776001 310.832001 240.783997 303.839996 240.783997 295.223999 C 240.783997 287.415985 244.688004 287.415985 248.591995 271.808014 C 249.080002 269.847992 255.528 285.471985 256.015991 283.519989 C 259.920013 267.911987 268.104004 264.007996 268.104004 264.007996 C 268.104004 264.007996 265.967987 269.312012 267.824005 275.720001 C 269.864014 282.768005 272.007996 291.144012 272.007996 295.231995 Z"/>
            <path id="path32" fill="#d1303d" stroke="none" d="M 24.775999 224 C 24.775999 241.671997 39.104 256 56.776001 256 C 74.447998 256 88.776001 241.671997 88.776001 224 C 88.776001 208 80.776001 208 72.776001 176 C 71.776001 171.992004 58.551998 204.007996 57.551998 200 C 49.551998 168 32.776001 160 32.776001 160 C 32.776001 160 37.152 170.880005 33.352001 184 C 29.167999 198.447998 24.775999 215.615997 24.775999 224 Z"/>
            <path id="path33" fill="#ed6a30" stroke="none" d="M 41.551998 223.223999 C 41.551998 231.848022 48.543999 238.832001 57.16 238.832001 C 65.776001 238.832001 72.767998 231.839996 72.767998 223.223999 C 72.767998 215.416016 68.863998 215.416016 64.959999 199.807983 C 64.472 197.848022 58.023998 213.471985 57.535999 211.52002 C 53.632 195.911987 45.448002 192.007996 45.448002 192.007996 C 45.448002 192.007996 47.584 197.312012 45.728001 203.720001 C 43.688 210.768005 41.543999 219.143982 41.543999 223.231995 Z"/>
        </g>
        <g id="d">
            <path id="path34" fill="#000000" stroke="none" d="M 319.992004 169.687988 C 322.575989 169.687988 325.119995 168.440002 326.656006 166.127991 L 335.839996 152.335999 C 336.088013 153.119995 336.343994 153.880005 336.623993 154.64801 C 338.079987 158.815979 342.64801 161.056 346.81601 159.544006 C 350.984009 158.080017 353.175995 153.52002 351.712006 149.35199 C 350.29599 145.312012 349.191986 141.088013 348.415985 136.783997 C 347.959991 134.264008 346.328003 132.112 344.023987 130.992004 C 341.712006 129.864014 339.007996 129.936005 336.76001 131.151978 C 330.944 134.272003 327.223999 136.424011 323.959991 141.320007 L 313.335999 157.255981 C 310.880005 160.936005 311.872009 165.895996 315.552002 168.35199 C 316.920013 169.255981 318.455994 169.695984 319.984009 169.695984 Z"/>
            <path id="path35" fill="#000000" stroke="none" d="M 496 248 C 496 240.335999 493.007996 226.135986 487.112 205.776001 C 484.18399 195.64801 487.415985 187.015991 487.424011 186.984009 C 488.951996 183.175995 487.359985 178.832001 483.735992 176.919983 C 480.088013 175.007996 475.608002 176.151978 473.343994 179.559998 C 472.824005 180.343994 463.29599 194.76001 455.152008 216.175995 C 447.70401 194.335999 446.519989 191.544006 439.847992 191.76001 C 438.872009 191.799988 437.944 192.072021 437.063995 192.463989 C 436.23999 192.328003 435.424011 192.175995 434.600006 192.104004 C 427.335999 176.664001 413.399994 165.608002 397.056 161.671997 C 379.584015 143.864014 379.104004 129.727997 378.696014 116.080017 C 378.287994 101.976013 377.824005 85.992004 356.079987 73.112 C 353.911987 71.81601 351.23999 71.632019 348.920013 72.615997 C 346.584015 73.59201 344.847992 75.608002 344.23999 78.063995 C 340.519989 92.911987 333.29599 96.76001 323.287994 102.071991 C 318.231995 104.752014 312.776001 107.64801 307.488007 112.119995 C 300.455994 92.944 290.81601 80.752014 283.640015 72.81601 C 273.488007 61.608002 267.056 49.096008 265.023987 36.656006 C 264.343994 32.471985 264 28.208008 264 24 C 264 21.223999 262.559998 18.656006 260.200012 17.191986 C 257.839996 15.720001 254.895996 15.600006 252.416 16.839996 L 235.880005 25.135986 C 212 39.463989 212 57.807983 212 73.992004 C 212 88.567993 212 102.40799 198.080002 118.35199 C 192.223999 114.832001 188.095993 108.847992 183.447998 102.135986 C 175.807999 91.080017 166.304001 77.320007 145.944 72.23999 C 143.559998 71.632019 141.031998 72.175995 139.087997 73.695984 C 137.143997 75.216003 136.007996 77.536011 136.007996 80 C 136.007996 95.968018 129.832001 111.944 118.599998 124.992004 C 111.176003 133.615997 92.624001 160 81.248001 179.59198 C 80.760002 177.864014 80.272003 176.039978 79.776001 174.063995 C 78.919998 170.623993 75.711998 167.919983 72.167999 167.768005 C 65.487999 167.552002 64.311996 170.335999 56.863998 192.184021 C 48.712002 170.768005 39.192001 156.35199 38.672001 155.567993 C 36.416 152.167999 31.959999 151.056 28.351999 152.927979 C 24.736 154.799988 23.112 159.127991 24.568001 162.936005 C 24.6 163.023987 27.832001 171.656006 24.903999 181.776001 C 19.007999 202.135986 16.016001 216.335999 16.016001 224 C 16.016001 238.903992 24.304001 251.776001 36.424 258.656006 C 33.576 265.376007 32.015999 272.59201 32.015999 280 C 32.015999 281.424011 32.071999 282.855988 32.183998 284.29599 C 22.304001 289.872009 16.016001 300.320007 16.016001 312 C 16.016001 320.264008 19.271999 328.175995 24.92 334.056 C 24.32 337.376007 24.016001 340.70401 24.016001 344 C 24.016001 374.872009 49.144001 400 80.015999 400 C 88.304001 400 96.512001 398.127991 104.015999 394.552002 L 104.015999 434.967987 C 104.015999 447.488007 101.056 460.032013 95.456001 471.231995 L 91.071999 480 L 24 480 C 19.576 480 16 483.575989 16 488 C 16 492.424011 19.576 496 24 496 L 487.992004 496 C 492.415985 496 495.992004 492.415985 495.992004 487.992004 C 495.992004 483.567993 492.415985 479.992004 487.992004 479.992004 L 420.944 479.992004 L 416.567993 471.231995 C 410.967987 460.032013 408.007996 447.488007 408.007996 434.967987 L 408.007996 394.552002 C 415.503998 398.119995 423.720001 400 432.007996 400 C 462.880005 400 488.007996 374.872009 488.007996 344 C 488.007996 340.70401 487.70401 337.376007 487.104004 334.056 C 492.752014 328.18399 496.007996 320.264008 496.007996 312 C 496.007996 300.320007 489.727997 289.872009 479.839996 284.29599 C 479.951996 282.855988 480.007996 281.424011 480.007996 280 L 480.007996 279.799988 C 489.664001 272.488007 496.007996 261.015991 496.007996 248 Z M 130.720001 135.432007 C 141.832001 122.528015 148.888 107.175995 151.192001 91.287994 C 159.759995 96 164.912003 103.455994 170.287994 111.231995 C 177.039993 121 184.024002 131.096008 197.472 135.583984 C 200.335999 136.559998 203.520004 135.791992 205.656006 133.656006 C 228 111.312012 228 90.623993 228 74 C 228 58.664001 228 48.528015 243.576004 39.160004 L 248.832001 36.536011 C 248.951996 37.432007 249.080002 38.335999 249.223999 39.231995 C 251.751999 54.735992 259.552002 70.056 271.776001 83.552002 C 279.399994 91.992004 290.23999 105.976013 296.23999 129.944 C 297.007996 133.023987 299.511993 135.35199 302.631989 135.888 C 305.791992 136.416016 308.895996 135.080017 310.656006 132.440002 C 316.384003 123.856018 323.384003 120.135986 330.799988 116.200012 C 339.70401 111.471985 349.567993 106.23999 355.903992 92.936005 C 362.208008 99.424011 362.40799 106.463989 362.712006 116.559998 C 363.071991 128.895996 363.528015 143.656006 375.40799 160.703979 C 357.152008 163.552002 341.335999 175.279999 333.415985 192.104004 C 328.640015 192.496002 324.071991 194.023987 319.967987 196.416016 C 315.959991 194.088013 311.471985 192.496002 306.615997 192.104004 C 302.791992 184.015991 297.088013 177.192017 290.231995 171.864014 L 280.720001 133.815979 C 275.656006 113.544006 266.944 102.031982 259.911987 94.264008 C 258.888 93.135986 257.895996 92.007996 256.920013 90.847992 C 254.888 88.424011 251.615997 87.424011 248.600006 88.312012 C 245.567993 89.175995 243.328003 91.752014 242.880005 94.872009 C 240.968002 108.335999 236.240005 120.287994 228.440002 131.399994 C 225.904007 135.015991 226.776001 140.007996 230.391998 142.544006 C 234.007996 145.096008 239 144.200012 241.535995 140.59198 C 247.472 132.119995 251.919998 123.255981 254.944 113.768005 C 258.808014 119.575989 262.575989 127.208008 265.200012 137.687988 L 271.320007 162.167999 C 266.415985 160.768005 261.279999 159.992004 256 159.992004 C 234.207993 159.992004 214.559998 172.671997 205.391998 192.096008 C 200.535995 192.488007 196.048004 194.080017 192.039993 196.40802 C 187.936005 194.007996 183.376007 192.488007 178.591995 192.096008 C 172.520004 179.192017 161.759995 169.376007 148.863998 164.167999 C 151.328003 160.815979 153.447998 158.072021 154.983994 156.296021 C 156.848007 154.119995 158.647995 151.880005 160.352005 149.59198 C 166.576004 155.52002 173.304001 160.063995 180.744003 163.384003 C 184.776001 165.216003 189.503998 163.367981 191.304001 159.335999 C 193.112 155.304016 191.304001 150.567993 187.255997 148.776001 C 179.087997 145.127991 172.175995 139.703979 165.535995 131.727997 C 163.895996 129.76001 161.496002 128.776001 158.839996 128.864014 C 156.279999 129.039978 153.960007 130.432007 152.600006 132.615997 C 149.735992 137.216003 146.447998 141.679993 142.848007 145.872009 C 139.695999 149.536011 135.520004 155.223999 131.936005 160.287994 C 130.623993 160.192017 129.328003 160 128 160 C 122.040001 160 116.272003 161.023987 110.800003 162.791992 C 118.472 151.367981 126.183998 140.687988 130.712006 135.424011 Z M 340.720001 296.824005 C 347.471985 298.936005 352 305.032013 352 312 C 352 317.056 349.615997 321.727997 345.463989 324.81601 C 342.808014 326.783997 341.631989 330.18399 342.519989 333.368011 C 343.503998 336.928009 344.007996 340.511993 344.007996 344 C 344.007996 366.056 326.063995 384 304.007996 384 C 297.023987 384 290.112 382.135986 284.023987 378.600006 C 282.783997 377.880005 281.391998 377.519989 280.007996 377.519989 C 278.623993 377.519989 277.231995 377.880005 275.992004 378.600006 C 263.824005 385.664001 248.192001 385.664001 236.024002 378.600006 C 233.535995 377.160004 230.479996 377.160004 227.992004 378.600006 C 221.904007 382.127991 214.992004 384 208.007996 384 C 185.951996 384 168.007996 366.056 168.007996 344 C 168.007996 340.503998 168.503998 336.928009 169.496002 333.368011 C 170.376007 330.18399 169.207993 326.783997 166.552002 324.81601 C 162.391998 321.727997 160.016006 317.056 160.016006 312 C 160.016006 305.032013 164.544006 298.928009 171.296005 296.824005 C 175.184006 295.615997 177.544006 291.664001 176.768005 287.664001 C 176.272003 285.096008 176.016006 282.511993 176.016006 280 C 176.016006 266.391998 182.863998 253.839996 194.343994 246.424011 C 196.287994 245.167999 197.600006 243.119995 197.919998 240.824005 C 198.240005 238.52002 197.552002 236.200012 196.031998 234.447998 C 194.199997 232.343994 192.016006 228.832001 192.016006 224 C 192.016006 215.175995 199.192001 208 208.007996 208 C 208.296005 208 208.567993 208.063995 208.839996 208.104004 C 208.904007 208.104004 209.727997 208.223999 209.792007 208.223999 C 213.479996 208.712006 217.024002 206.432007 218.255997 202.903992 C 223.848007 186.815979 239.024002 176.007996 256.015991 176.007996 C 273.007996 176.007996 288.18399 186.824005 293.776001 202.903992 C 295 206.447998 298.552002 208.712006 302.23999 208.223999 C 302.303986 208.223999 303.127991 208.112 303.191986 208.104004 C 303.463989 208.063995 303.735992 208.007996 304.023987 208 C 312.847992 208 320.023987 215.175995 320.023987 224 C 320.023987 228.832001 317.847992 232.343994 316.007996 234.447998 C 314.488007 236.200012 313.799988 238.52002 314.119995 240.824005 C 314.440002 243.119995 315.752014 245.167999 317.696014 246.424011 C 329.175995 253.848022 336.023987 266.391998 336.023987 280 C 336.023987 282.511993 335.776001 285.096008 335.272003 287.664001 C 334.488007 291.664001 336.847992 295.608002 340.743988 296.824005 Z M 360 434.976013 C 360 447.496002 357.040009 460.040009 351.440002 471.23999 L 347.063995 480 L 292.951996 480 L 288.567993 471.23999 C 282.967987 460.040009 280.007996 447.496002 280.007996 434.976013 L 280.007996 394.559998 C 287.503998 398.135986 295.720001 400.007996 304.007996 400.007996 C 309.623993 400.007996 315.032013 399.160004 320.152008 397.615997 C 333.096008 401.503998 347.584015 400.480011 360.007996 394.567993 L 360.007996 434.984009 Z M 164.944 480.007996 L 160.559998 471.247986 C 154.960007 460.048004 152 447.503998 152 434.984009 L 152 394.567993 C 159.496002 398.135986 167.712006 400.015991 176 400.015991 C 181.367996 400.015991 186.584 399.071991 191.639999 397.567993 C 196.815994 399.152008 202.311996 400.015991 208 400.015991 C 216.287994 400.015991 224.496002 398.152008 232 394.567993 L 232 434.984009 C 232 447.503998 229.039993 460.048004 223.440002 471.247986 L 219.056 480.007996 Z M 236.944 480.007996 L 237.744003 478.399994 C 244.447998 464.984009 247.992004 449.967987 247.992004 434.976013 L 247.992004 399.29599 C 253.296005 400.048004 258.687988 400.048004 263.992004 399.29599 L 263.992004 434.976013 C 263.992004 449.967987 267.536011 464.984009 274.23999 478.399994 L 275.040009 480.007996 L 236.936005 480.007996 Z M 38.984001 190.687988 C 42.360001 198.583984 45.720001 207.856018 48.231998 217.936005 C 49.088001 221.376007 52.296001 224.080017 55.84 224.231995 C 62.568001 224.416016 63.703999 221.640015 71.216003 199.623993 C 72.912003 203.712006 74.480003 206.856018 75.839996 209.575989 C 78.688004 215.279999 80 217.888 80 224 C 80 237.231995 69.232002 248 56 248 C 42.768002 248 32 237.231995 32 224 C 32 220.752014 32.944 212.184021 38.984001 190.687988 Z M 99.991997 378.600006 C 93.888 382.127991 86.984001 384 80 384 C 57.944 384 40 366.056 40 344 C 40 340.480011 40.495998 336.880005 41.48 333.320007 C 42.352001 330.119995 41.16 326.70401 38.48 324.743988 C 34.360001 321.735992 32 317.096008 32 312 C 32 305.032013 36.52 298.936005 43.256001 296.839996 C 47.136002 295.631989 49.495998 291.696014 48.743999 287.70401 C 48.248001 285.112 48 282.519989 48 279.992004 C 48 274.256012 49.279999 268.664001 51.672001 263.552002 C 53.112 263.712006 54.512001 263.992004 56 263.992004 C 78.056 263.992004 96 246.048004 96 223.992004 C 96 214.287994 93.384003 208.888 90.32 202.76001 C 95.912003 186.752014 111.031998 175.992004 128 175.992004 C 144.968002 175.992004 160.160004 186.791992 165.720001 202.848022 C 166.919998 206.328003 170.408005 208.559998 173.992004 208.200012 L 175.175995 208.063995 C 176.727997 207.872009 178.423996 208.112 180.095993 208.575989 C 177.552002 213.160004 176 218.376007 176 223.984009 C 176 228.783997 177.119995 233.496002 179.207993 237.807983 C 167.056 248.359985 160 263.631989 160 279.984009 C 160 281.40799 160.056 282.839996 160.167999 284.279999 C 150.279999 289.864014 144 300.312012 144 311.984009 C 144 320.343994 147.192001 328.144012 152.919998 334.063995 C 152.304001 337.376007 152 340.696014 152 343.984009 C 152 359.200012 158.119995 373.007996 168.016006 383.112 C 163.832001 382.256012 159.751999 380.752014 156.007996 378.584015 C 153.535995 377.144012 150.464005 377.144012 147.992004 378.584015 C 135.792007 385.64801 120.208 385.64801 108.008003 378.584015 C 105.536003 377.144012 102.463997 377.144012 99.991997 378.584015 Z M 109.751999 478.391998 C 116.456001 464.976013 120 449.959991 120 434.967987 L 120 399.272003 C 125.304001 400.023987 130.695999 400.023987 136 399.272003 L 136 434.967987 C 136 449.959991 139.544006 464.976013 146.248001 478.391998 L 147.048004 480 L 108.944 480 Z M 402.247986 478.391998 L 403.048004 479.992004 L 364.944 479.992004 L 365.743988 478.391998 C 372.447998 464.976013 375.992004 449.959991 375.992004 434.967987 L 375.992004 399.272003 C 381.29599 400.023987 386.687988 400.023987 391.992004 399.272003 L 391.992004 434.967987 C 391.992004 449.959991 395.536011 464.976013 402.23999 478.391998 Z M 468.743988 296.847992 C 475.480011 298.944 480 305.032013 480 312.007996 C 480 317.104004 477.640015 321.743988 473.519989 324.752014 C 470.839996 326.712006 469.64801 330.127991 470.519989 333.328003 C 471.503998 336.888 472 340.488007 472 344.007996 C 472 366.063995 454.056 384.007996 432 384.007996 C 425.015991 384.007996 418.112 382.144012 412.007996 378.608002 C 409.536011 377.167999 406.463989 377.167999 403.992004 378.608002 C 391.791992 385.671997 376.208008 385.671997 364.007996 378.608002 C 361.536011 377.167999 358.463989 377.167999 355.992004 378.608002 C 352.247986 380.768005 348.175995 382.272003 343.992004 383.127991 C 353.880005 373.023987 360 359.223999 360 344.007996 C 360 340.720001 359.696014 337.399994 359.079987 334.088013 C 364.808014 328.167999 368 320.368011 368 312.007996 C 368 300.335999 361.720001 289.888 351.832001 284.303986 C 351.951996 282.864014 352 281.432007 352 280.007996 C 352 263.64801 344.936005 248.384003 332.791992 237.832001 C 334.888 233.528015 336 228.807983 336 224.007996 C 336 218.399994 334.447998 213.184021 331.895996 208.59198 C 333.552002 208.135986 335.23999 207.895996 336.81601 208.088013 L 338 208.223999 C 341.567993 208.528015 345.071991 206.35199 346.272003 202.872009 C 351.832001 186.807983 366.992004 176.015991 383.992004 176.015991 C 400.992004 176.015991 416.152008 186.815979 421.712006 202.872009 C 422.847992 206.151978 426.023987 208.247986 429.391998 208.175995 C 426.640015 216.832001 424.040009 222.031982 421.839996 226.432007 C 418.70401 232.703979 416 238.119995 416 248.007996 C 416 270.063995 433.944 288.007996 456 288.007996 C 458.496002 288.007996 460.928009 287.712006 463.303986 287.272003 C 463.279999 287.424011 463.287994 287.567993 463.264008 287.720001 C 462.503998 291.712006 464.864014 295.640015 468.752014 296.855988 Z M 456 272.007996 C 442.768005 272.007996 432 261.23999 432 248.007996 C 432 241.895996 433.303986 239.287994 436.160004 233.583984 C 437.519989 230.864014 439.088013 227.720001 440.783997 223.632019 C 448.287994 245.64801 449.424011 248.399994 456.160004 248.23999 C 459.70401 248.080017 462.903992 245.391998 463.76001 241.944 C 466.272003 231.888 469.640015 222.615997 473.015991 214.712006 C 479.056 236.200012 480 244.76001 480 248.007996 C 480 261.23999 469.231995 272.007996 456 272.007996 Z"/>
            <path id="path36" fill="#000000" stroke="none" d="M 287.424011 234.984009 C 288.951996 231.175995 287.359985 226.832001 283.735992 224.919983 C 280.096008 223 275.615997 224.151978 273.343994 227.559998 C 272.824005 228.343994 263.29599 242.76001 255.151993 264.175995 C 247.703995 242.335999 246.528 239.559998 239.848007 239.76001 C 236.304001 239.919983 233.104004 242.608002 232.248001 246.056 C 228.455994 261.208008 224.792007 268.528015 221.848007 274.415985 C 218.712006 280.687988 216.007996 286.104004 216.007996 295.992004 C 216.007996 318.048004 233.951996 335.992004 256.007996 335.992004 C 278.063995 335.992004 296.007996 318.048004 296.007996 295.992004 C 296.007996 288.328003 293.015991 274.127991 287.119995 253.768005 C 284.191986 243.640015 287.424011 235.007996 287.432007 234.976013 Z M 256 320 C 242.768005 320 232 309.231995 232 296 C 232 289.888 233.304001 287.279999 236.160004 281.575989 C 237.520004 278.855988 239.087997 275.712006 240.783997 271.623993 C 248.287994 293.640015 249.360001 296.391998 256.160004 296.231995 C 259.70401 296.071991 262.903992 293.384003 263.76001 289.936005 C 266.272003 279.880005 269.640015 270.608002 273.015991 262.70401 C 279.056 284.191986 280 292.752014 280 296 C 280 309.231995 269.231995 320 256 320 Z"/>
            <path id="path37" fill="#000000" stroke="none" d="M 466 88.247986 C 463.559998 87.640015 461.040009 88.160004 459.079987 89.695984 C 454.559998 93.223999 432 111.664001 432 128 C 432 142.727997 440.287994 162.312012 440.640015 163.143982 C 441.615997 165.424011 443.600006 167.127991 446 167.752014 C 446.664001 167.919983 447.335999 168 448 168 C 449.768005 168 451.496002 167.416016 452.920013 166.304016 C 457.440002 162.776001 480 144.335999 480 128 C 480 113.272003 471.712006 93.687988 471.359985 92.856018 C 470.384003 90.575989 468.399994 88.872009 466 88.247986 Z M 451.528015 146.223999 C 449.687988 140.312012 448 133.35199 448 128 C 448 124 453.584015 116.567993 460.471985 109.776001 C 462.312012 115.687988 464 122.64801 464 128 C 464 132 458.415985 139.432007 451.528015 146.223999 Z"/>
            <path id="path38" fill="#000000" stroke="none" d="M 82 72.247986 C 79.568001 71.64801 77.031998 72.167999 75.080002 73.695984 C 70.559998 77.223999 48 95.664001 48 112 C 48 126.727997 56.287998 146.312012 56.639999 147.143982 C 57.616001 149.424011 59.599998 151.127991 62 151.752014 C 62.664001 151.919983 63.335999 152 64 152 C 65.767998 152 67.496002 151.416016 68.919998 150.304016 C 73.440002 146.776001 96 128.335999 96 112 C 96 97.272003 87.711998 77.687988 87.360001 76.856018 C 86.384003 74.575989 84.400002 72.872009 82 72.247986 Z M 67.528 130.223999 C 65.688004 124.312012 64 117.35199 64 112 C 64 108 69.584 100.567993 76.472 93.776001 C 78.311996 99.687988 80 106.64801 80 112 C 80 116 74.416 123.432007 67.528 130.223999 Z"/>
        </g>
    </g>
    <g id="g2"/>
</svg>
